<svg xmlns="http://www.w3.org/2000/svg" xmlns:xlink="http://www.w3.org/1999/xlink" width="24" height="24.375" viewBox="0 0 24 24.375">
  <defs fill="#1c140d">
    <clipPath id="clip-path" fill="#1c140d">
      <rect id="Rectangle_1377" data-name="Rectangle 1377" width="24" height="24.375" fill="#ffffff"/>
    </clipPath>
  </defs>
  <g id="Group_1711" data-name="Group 1711" transform="translate(0 0)">
    <g id="Group_1710" data-name="Group 1710" transform="translate(0 0)" clip-path="url(#clip-path)">
      <path id="Path_2982" data-name="Path 2982" d="M7.2,24.375A2.2,2.2,0,1,1,8.74,20.622,2.093,2.093,0,0,1,9.4,22.178a2.187,2.187,0,0,1-2.2,2.2m12.2,0a2.2,2.2,0,1,1,1.541-3.752,2.093,2.093,0,0,1,.656,1.556,2.187,2.187,0,0,1-2.2,2.2M5.613,4.24,8.969,11.2h8.786L21.568,4.24ZM4.7,2.41H22.666q.977,0,1.236.595a1.423,1.423,0,0,1-.168,1.327l-4.118,7.413a2.865,2.865,0,0,1-.854.9,2.043,2.043,0,0,1-1.19.381H8.328L6.62,16.2H21.6v1.83H6.894a2.048,2.048,0,0,1-1.846-.854,1.755,1.755,0,0,1,.015-1.922l1.952-3.6L2.379,1.83H0V0H3.569ZM8.969,11.2h0Z" transform="translate(0 0)" fill="#ffffff"/>
    </g>
  </g>
</svg>